<?xml version="1.0" encoding="UTF-8"?>
<svg id="Layer_2" data-name="Layer 2" xmlns="http://www.w3.org/2000/svg" xmlns:xlink="http://www.w3.org/1999/xlink" viewBox="0 0 111.21 71.56">
  <defs>
    <clipPath id="clippath">
      <rect x="67.51" y="9.21" width="8.4" height="43.4" fill="none"/>
    </clipPath>
    <clipPath id="clippath-1">
      <rect x="2.21" y="56.71" width="106.6" height="8.8" fill="none"/>
    </clipPath>
    <clipPath id="clippath-2">
      <rect x="75.01" y="15.51" width="4.8" height="36.5" fill="none"/>
    </clipPath>
    <clipPath id="clippath-3">
      <rect x="27.81" y="15.51" width="4.7" height="37" fill="none"/>
    </clipPath>
    <clipPath id="clippath-4">
      <rect x="64.01" y="9.01" width="5" height="49.9" fill="none"/>
    </clipPath>
    <clipPath id="clippath-5">
      <rect x="40.71" y="8.91" width="5.1" height="50.2" fill="none"/>
    </clipPath>
    <clipPath id="clippath-6">
      <rect x="6.01" y="19.71" width="22.9" height="41.1" fill="none"/>
    </clipPath>
    <clipPath id="clippath-7">
      <rect x="33.01" y="10.11" width="7.4" height="40.8" fill="none"/>
    </clipPath>
    <clipPath id="clippath-8">
      <rect x="43.21" y="1.11" width="13.8" height="54.8" fill="none"/>
    </clipPath>
    <clipPath id="clippath-9">
      <rect x="78.01" y="17.01" width="30.9" height="42.3" fill="none"/>
    </clipPath>
    <clipPath id="clippath-10">
      <rect x="1.61" y="58.91" width="93.8" height="10.2" fill="none"/>
    </clipPath>
  </defs>
  <g id="svg1">
    <g id="Helmet">
      <path d="M111.21,59c.1,1.4-.9,2.6-2.3,2.7v.1c-50.3,21.1-106.6,1.4-106.6,1.4-1.2-.2-2.2-1.1-2.3-2.3-.1-1.4.9-2.7,2.3-2.8,0,0,.15.05.45.14,2.91-27.42,14.42-38.47,29.33-42.76.03-.59.07-1.15.12-1.68v-.3c-.1-2.2,1.6-4.1,3.8-4.1,2.02-.19,6.17-.37,9.95-.49C47.2,3.77,49.77-.04,54.81,0h.5c5-.1,7.6,3.8,8.8,8.9,0,.03,0,.06.02.09,3.04.12,5.98.26,7.58.41h.3c2.2.3,3.7,2.2,3.5,4.4.05.54.09,1.12.12,1.72,10.9,3.13,20.5,9.28,26.55,19.49.14.04.28.11.39.21.1.09.12.24.03.35-.02.02-.04.04-.06.05,3.28,5.74,5.45,12.74,6.15,21.17.07-.03.15-.06.22-.09,1.2,0,2.3,1,2.3,2.3Z" fill="none"/>
      <path d="M60.91,45.91c.3-4.7,3.4-8.2,3.4-8.2-2.6.7-4.8,3-6.5,5.6-2.5-4.5-8.4-7-8.4-7,0,0,2.6,4.1,2.8,8.4-2.3-2.7-6.9-3.8-6.9-3.8,0,0,5.4,4.8,4,11.3,0,0,.6.7,1.4.7,1.1,1,3.8,1,5.1.9.8.2,1.8.2,3.1,0,3.6-.5,1.7-3.4,2-8.1v.2h0Z" fill="#5284c4"/>
      <path d="M111.21,59c.1,1.4-.9,2.6-2.3,2.7v.1c-50.3,21.1-106.6,1.4-106.6,1.4-1.2-.2-2.2-1.1-2.3-2.3-.1-1.4.9-2.7,2.3-2.8,0,0,.15.05.45.14,2.91-27.42,14.42-38.47,29.33-42.76.03-.59.07-1.15.12-1.68v-.3c-.1-2.2,1.6-4.1,3.8-4.1,2.02-.19,6.17-.37,9.95-.49C47.2,3.77,49.77-.04,54.81,0h.5c5-.1,7.6,3.8,8.8,8.9,0,.03,0,.06.02.09,3.04.12,5.98.26,7.58.41h.3c2.2.3,3.7,2.2,3.5,4.4.05.54.09,1.12.12,1.72,10.9,3.13,20.5,9.28,26.55,19.49.14.04.28.11.39.21.1.09.12.24.03.35-.02.02-.04.04-.06.05,3.28,5.74,5.45,12.74,6.15,21.17.07-.03.15-.06.22-.09,1.2,0,2.3,1,2.3,2.3Z" fill="none"/>
      <path d="M102.6,35.57s-.04.04-.06.05c-.09.05-.2.05-.29-.02-.15-.12-.32-.18-.57-.18-.52-.01-1.36.31-2.55.91h-.01c-.31.18-1.06.73-2,1.5-.96.77-2.15,1.78-3.4,2.86-2.51,2.17-5.3,4.65-7.13,6.29-1.22,1.09-2.01,1.81-2.01,1.81-.1.09-.26.08-.35-.02-.09-.1-.08-.26.02-.35,0,0,7.14-6.47,11.52-10.13,1.47-1.22,2.6-2.12,3.13-2.4,1.22-.61,2.08-.97,2.78-.97.18,0,.35.03.5.09.14.04.28.11.39.21.1.09.12.24.03.35Z" fill="#5da9c6"/>
      <path d="M111.21,59c.1,1.4-.9,2.6-2.3,2.7v.1c-50.3,21.1-106.6,1.4-106.6,1.4-1.2-.2-2.2-1.1-2.3-2.3-.1-1.4.9-2.7,2.3-2.8,0,0,.15.05.45.14,2.91-27.42,14.42-38.47,29.33-42.76.03-.59.07-1.15.12-1.68v-.3c-.1-2.2,1.6-4.1,3.8-4.1,2.02-.19,6.17-.37,9.95-.49C47.2,3.77,49.77-.04,54.81,0h.5c5-.1,7.6,3.8,8.8,8.9,0,.03,0,.06.02.09,3.04.12,5.98.26,7.58.41h.3c2.2.3,3.7,2.2,3.5,4.4.05.54.09,1.12.12,1.72,10.9,3.13,20.5,9.28,26.55,19.49.14.04.28.11.39.21.1.09.12.24.03.35-.02.02-.04.04-.06.05,3.28,5.74,5.45,12.74,6.15,21.17.07-.03.15-.06.22-.09,1.2,0,2.3,1,2.3,2.3Z" fill="none"/>
      <path d="M16.61,62.31c-.3-.5-.7-.9-1.3-1.2-.4-.2-.8,0-1,.3s-.1.7.1.9c.4.4.9.8,1.5.9.3,0,.7-.1.8-.5v-.5l-.1.1h0Z" fill="#13515f"/>
      <path d="M111.21,59c.1,1.4-.9,2.6-2.3,2.7v.1c-50.3,21.1-106.6,1.4-106.6,1.4-1.2-.2-2.2-1.1-2.3-2.3-.1-1.4.9-2.7,2.3-2.8,0,0,.15.05.45.14,2.91-27.42,14.42-38.47,29.33-42.76.03-.59.07-1.15.12-1.68v-.3c-.1-2.2,1.6-4.1,3.8-4.1,2.02-.19,6.17-.37,9.95-.49C47.2,3.77,49.77-.04,54.81,0h.5c5-.1,7.6,3.8,8.8,8.9,0,.03,0,.06.02.09,3.04.12,5.98.26,7.58.41h.3c2.2.3,3.7,2.2,3.5,4.4.05.54.09,1.12.12,1.72,10.9,3.13,20.5,9.28,26.55,19.49.14.04.28.11.39.21.1.09.12.24.03.35-.02.02-.04.04-.06.05,3.28,5.74,5.45,12.74,6.15,21.17.07-.03.15-.06.22-.09,1.2,0,2.3,1,2.3,2.3Z" fill="none"/>
      <path d="M14.41,64.21c-.5-.6-1-1.2-1.6-1.7-.2-.2-.5-.2-.7,0s-.2.5,0,.7c.5.6,1,1.2,1.6,1.7.4.3.9-.3.7-.7h0Z" fill="#13515f"/>
      <path d="M111.21,59c.1,1.4-.9,2.6-2.3,2.7v.1c-50.3,21.1-106.6,1.4-106.6,1.4-1.2-.2-2.2-1.1-2.3-2.3-.1-1.4.9-2.7,2.3-2.8,0,0,.15.05.45.14,2.91-27.42,14.42-38.47,29.33-42.76.03-.59.07-1.15.12-1.68v-.3c-.1-2.2,1.6-4.1,3.8-4.1,2.02-.19,6.17-.37,9.95-.49C47.2,3.77,49.77-.04,54.81,0h.5c5-.1,7.6,3.8,8.8,8.9,0,.03,0,.06.02.09,3.04.12,5.98.26,7.58.41h.3c2.2.3,3.7,2.2,3.5,4.4.05.54.09,1.12.12,1.72,10.9,3.13,20.5,9.28,26.55,19.49.14.04.28.11.39.21.1.09.12.24.03.35-.02.02-.04.04-.06.05,3.28,5.74,5.45,12.74,6.15,21.17.07-.03.15-.06.22-.09,1.2,0,2.3,1,2.3,2.3Z" fill="none"/>
      <path d="M18.51,62.51v-2.8c0-.6-1-.8-1.2-.2-.4,1.1-.3,2.3.3,3.3.2.2.5.3.7.1.1,0,.2-.2.2-.4h0Z" fill="#13515f"/>
      <path d="M111.21,59c.1,1.4-.9,2.6-2.3,2.7v.1c-50.3,21.1-106.6,1.4-106.6,1.4-1.2-.2-2.2-1.1-2.3-2.3-.1-1.4.9-2.7,2.3-2.8,0,0,.15.05.45.14,2.91-27.42,14.42-38.47,29.33-42.76.03-.59.07-1.15.12-1.68v-.3c-.1-2.2,1.6-4.1,3.8-4.1,2.02-.19,6.17-.37,9.95-.49C47.2,3.77,49.77-.04,54.81,0h.5c5-.1,7.6,3.8,8.8,8.9,0,.03,0,.06.02.09,3.04.12,5.98.26,7.58.41h.3c2.2.3,3.7,2.2,3.5,4.4.05.54.09,1.12.12,1.72,10.9,3.13,20.5,9.28,26.55,19.49.14.04.28.11.39.21.1.09.12.24.03.35-.02.02-.04.04-.06.05,3.28,5.74,5.45,12.74,6.15,21.17.07-.03.15-.06.22-.09,1.2,0,2.3,1,2.3,2.3Z" fill="none"/>
      <path d="M21.51,60.11c-.1-.4-.1-.8,0-1.2.3-.7-1-1.1-1.3-.4-.3.7-.3,1.5.2,2.1.4.5,1.3.2,1.1-.5h0Z" fill="#13515f"/>
      <path d="M111.21,59c.1,1.4-.9,2.6-2.3,2.7v.1c-50.3,21.1-106.6,1.4-106.6,1.4-1.2-.2-2.2-1.1-2.3-2.3-.1-1.4.9-2.7,2.3-2.8,0,0,.15.05.45.14,2.91-27.42,14.42-38.47,29.33-42.76.03-.59.07-1.15.12-1.68v-.3c-.1-2.2,1.6-4.1,3.8-4.1,2.02-.19,6.17-.37,9.95-.49C47.2,3.77,49.77-.04,54.81,0h.5c5-.1,7.6,3.8,8.8,8.9,0,.03,0,.06.02.09,3.04.12,5.98.26,7.58.41h.3c2.2.3,3.7,2.2,3.5,4.4.05.54.09,1.12.12,1.72,10.9,3.13,20.5,9.28,26.55,19.49.14.04.28.11.39.21.1.09.12.24.03.35-.02.02-.04.04-.06.05,3.28,5.74,5.45,12.74,6.15,21.17.07-.03.15-.06.22-.09,1.2,0,2.3,1,2.3,2.3Z" fill="none"/>
      <path d="M24.51,59.31v-.9c0-.4.3-.6.2-1.1-.1-.3-.4-.5-.7-.4-1,.2-1,1.9-.7,2.6.2.7,1.4.5,1.3-.2h-.1Z" fill="#13515f"/>
      <path d="M111.21,59c.1,1.4-.9,2.6-2.3,2.7v.1c-50.3,21.1-106.6,1.4-106.6,1.4-1.2-.2-2.2-1.1-2.3-2.3-.1-1.4.9-2.7,2.3-2.8,0,0,.15.05.45.14,2.91-27.42,14.42-38.47,29.33-42.76.03-.59.07-1.15.12-1.68v-.3c-.1-2.2,1.6-4.1,3.8-4.1,2.02-.19,6.17-.37,9.95-.49C47.2,3.77,49.77-.04,54.81,0h.5c5-.1,7.6,3.8,8.8,8.9,0,.03,0,.06.02.09,3.04.12,5.98.26,7.58.41h.3c2.2.3,3.7,2.2,3.5,4.4.05.54.09,1.12.12,1.72,10.9,3.13,20.5,9.28,26.55,19.49.14.04.28.11.39.21.1.09.12.24.03.35-.02.02-.04.04-.06.05,3.28,5.74,5.45,12.74,6.15,21.17.07-.03.15-.06.22-.09,1.2,0,2.3,1,2.3,2.3Z" fill="none"/>
      <path d="M45.41,61.71c.3-.5.4-1.1.3-1.7,0-.4-.4-.7-.8-.7-.3,0-.6.3-.7.6-.1.6-.1,1.2,0,1.7.1.3.5.5.8.4.1,0,.3-.2.3-.3h.1Z" fill="#13515f"/>
      <path d="M111.21,59c.1,1.4-.9,2.6-2.3,2.7v.1c-50.3,21.1-106.6,1.4-106.6,1.4-1.2-.2-2.2-1.1-2.3-2.3-.1-1.4.9-2.7,2.3-2.8,0,0,.15.05.45.14,2.91-27.42,14.42-38.47,29.33-42.76.03-.59.07-1.15.12-1.68v-.3c-.1-2.2,1.6-4.1,3.8-4.1,2.02-.19,6.17-.37,9.95-.49C47.2,3.77,49.77-.04,54.81,0h.5c5-.1,7.6,3.8,8.8,8.9,0,.03,0,.06.02.09,3.04.12,5.98.26,7.58.41h.3c2.2.3,3.7,2.2,3.5,4.4.05.54.09,1.12.12,1.72,10.9,3.13,20.5,9.28,26.55,19.49.14.04.28.11.39.21.1.09.12.24.03.35-.02.02-.04.04-.06.05,3.28,5.74,5.45,12.74,6.15,21.17.07-.03.15-.06.22-.09,1.2,0,2.3,1,2.3,2.3Z" fill="none"/>
      <path d="M26.71,59.61c.6.3,1.1-.4.8-.9-.2-.3-.2-.7,0-1,.4-.9-1-1.6-1.4-.7-.5.9-.3,2,.6,2.6h0Z" fill="#13515f"/>
      <path d="M111.21,59c.1,1.4-.9,2.6-2.3,2.7v.1c-50.3,21.1-106.6,1.4-106.6,1.4-1.2-.2-2.2-1.1-2.3-2.3-.1-1.4.9-2.7,2.3-2.8,0,0,.15.05.45.14,2.91-27.42,14.42-38.47,29.33-42.76.03-.59.07-1.15.12-1.68v-.3c-.1-2.2,1.6-4.1,3.8-4.1,2.02-.19,6.17-.37,9.95-.49C47.2,3.77,49.77-.04,54.81,0h.5c5-.1,7.6,3.8,8.8,8.9,0,.03,0,.06.02.09,3.04.12,5.98.26,7.58.41h.3c2.2.3,3.7,2.2,3.5,4.4.05.54.09,1.12.12,1.72,10.9,3.13,20.5,9.28,26.55,19.49.14.04.28.11.39.21.1.09.12.24.03.35-.02.02-.04.04-.06.05,3.28,5.74,5.45,12.74,6.15,21.17.07-.03.15-.06.22-.09,1.2,0,2.3,1,2.3,2.3Z" fill="none"/>
      <path d="M49.81,64.41c.6.3,1.1-.4.8-.9-.2-.3-.2-.7,0-1,.4-.9-1-1.6-1.4-.7-.5.9-.3,2,.6,2.6h0Z" fill="#13515f"/>
      <path d="M111.21,59c.1,1.4-.9,2.6-2.3,2.7v.1c-50.3,21.1-106.6,1.4-106.6,1.4-1.2-.2-2.2-1.1-2.3-2.3-.1-1.4.9-2.7,2.3-2.8,0,0,.15.05.45.14,2.91-27.42,14.42-38.47,29.33-42.76.03-.59.07-1.15.12-1.68v-.3c-.1-2.2,1.6-4.1,3.8-4.1,2.02-.19,6.17-.37,9.95-.49C47.2,3.77,49.77-.04,54.81,0h.5c5-.1,7.6,3.8,8.8,8.9,0,.03,0,.06.02.09,3.04.12,5.98.26,7.58.41h.3c2.2.3,3.7,2.2,3.5,4.4.05.54.09,1.12.12,1.72,10.9,3.13,20.5,9.28,26.55,19.49.14.04.28.11.39.21.1.09.12.24.03.35-.02.02-.04.04-.06.05,3.28,5.74,5.45,12.74,6.15,21.17.07-.03.15-.06.22-.09,1.2,0,2.3,1,2.3,2.3Z" fill="none"/>
      <path d="M32.41,59.21c.4-.5.7-1.1.9-1.7.3-.8-.9-1.5-1.3-.6-.3.7-.5,1.4-.5,2.1,0,.3.3.5.5.5.1,0,.2,0,.3-.2l.1-.1Z" fill="#13515f"/>
      <path d="M111.21,59c.1,1.4-.9,2.6-2.3,2.7v.1c-50.3,21.1-106.6,1.4-106.6,1.4-1.2-.2-2.2-1.1-2.3-2.3-.1-1.4.9-2.7,2.3-2.8,0,0,.15.05.45.14,2.91-27.42,14.42-38.47,29.33-42.76.03-.59.07-1.15.12-1.68v-.3c-.1-2.2,1.6-4.1,3.8-4.1,2.02-.19,6.17-.37,9.95-.49C47.2,3.77,49.77-.04,54.81,0h.5c5-.1,7.6,3.8,8.8,8.9,0,.03,0,.06.02.09,3.04.12,5.98.26,7.58.41h.3c2.2.3,3.7,2.2,3.5,4.4.05.54.09,1.12.12,1.72,10.9,3.13,20.5,9.28,26.55,19.49.14.04.28.11.39.21.1.09.12.24.03.35-.02.02-.04.04-.06.05,3.28,5.74,5.45,12.74,6.15,21.17.07-.03.15-.06.22-.09,1.2,0,2.3,1,2.3,2.3Z" fill="none"/>
      <path d="M52.11,65.71c.4-.5.7-1.1.9-1.7.3-.8-.9-1.5-1.3-.6-.3.6-.5,1.3-.5,2.1,0,.3.3.5.5.5.1,0,.2,0,.3-.2l.1-.1h0Z" fill="#13515f"/>
      <path d="M111.21,59c.1,1.4-.9,2.6-2.3,2.7v.1c-50.3,21.1-106.6,1.4-106.6,1.4-1.2-.2-2.2-1.1-2.3-2.3-.1-1.4.9-2.7,2.3-2.8,0,0,.15.05.45.14,2.91-27.42,14.42-38.47,29.33-42.76.03-.59.07-1.15.12-1.68v-.3c-.1-2.2,1.6-4.1,3.8-4.1,2.02-.19,6.17-.37,9.95-.49C47.2,3.77,49.77-.04,54.81,0h.5c5-.1,7.6,3.8,8.8,8.9,0,.03,0,.06.02.09,3.04.12,5.98.26,7.58.41h.3c2.2.3,3.7,2.2,3.5,4.4.05.54.09,1.12.12,1.72,10.9,3.13,20.5,9.28,26.55,19.49.14.04.28.11.39.21.1.09.12.24.03.35-.02.02-.04.04-.06.05,3.28,5.74,5.45,12.74,6.15,21.17.07-.03.15-.06.22-.09,1.2,0,2.3,1,2.3,2.3Z" fill="none"/>
      <path d="M42.61,61.01c.2-.7.4-1.5.5-2.3,0-.3-.1-.5-.4-.6-.3,0-.5.1-.6.4-.3.7-.4,1.5-.5,2.3,0,.3.3.5.5.5s.3-.1.4-.3h.1Z" fill="#13515f"/>
      <path d="M111.21,59c.1,1.4-.9,2.6-2.3,2.7v.1c-50.3,21.1-106.6,1.4-106.6,1.4-1.2-.2-2.2-1.1-2.3-2.3-.1-1.4.9-2.7,2.3-2.8,0,0,.15.05.45.14,2.91-27.42,14.42-38.47,29.33-42.76.03-.59.07-1.15.12-1.68v-.3c-.1-2.2,1.6-4.1,3.8-4.1,2.02-.19,6.17-.37,9.95-.49C47.2,3.77,49.77-.04,54.81,0h.5c5-.1,7.6,3.8,8.8,8.9,0,.03,0,.06.02.09,3.04.12,5.98.26,7.58.41h.3c2.2.3,3.7,2.2,3.5,4.4.05.54.09,1.12.12,1.72,10.9,3.13,20.5,9.28,26.55,19.49.14.04.28.11.39.21.1.09.12.24.03.35-.02.02-.04.04-.06.05,3.28,5.74,5.45,12.74,6.15,21.17.07-.03.15-.06.22-.09,1.2,0,2.3,1,2.3,2.3Z" fill="none"/>
      <path d="M40.31,59.91c.2-.4.3-.9.5-1.4.2-.8-1-1.2-1.3-.5-.2.4-.3.7-.5,1.1-.3.9,1,1.6,1.4.7l-.1.1h0Z" fill="#13515f"/>
      <path d="M111.21,59c.1,1.4-.9,2.6-2.3,2.7v.1c-50.3,21.1-106.6,1.4-106.6,1.4-1.2-.2-2.2-1.1-2.3-2.3-.1-1.4.9-2.7,2.3-2.8,0,0,.15.05.45.14,2.91-27.42,14.42-38.47,29.33-42.76.03-.59.07-1.15.12-1.68v-.3c-.1-2.2,1.6-4.1,3.8-4.1,2.02-.19,6.17-.37,9.95-.49C47.2,3.77,49.77-.04,54.81,0h.5c5-.1,7.6,3.8,8.8,8.9,0,.03,0,.06.02.09,3.04.12,5.98.26,7.58.41h.3c2.2.3,3.7,2.2,3.5,4.4.05.54.09,1.12.12,1.72,10.9,3.13,20.5,9.28,26.55,19.49.14.04.28.11.39.21.1.09.12.24.03.35-.02.02-.04.04-.06.05,3.28,5.74,5.45,12.74,6.15,21.17.07-.03.15-.06.22-.09,1.2,0,2.3,1,2.3,2.3Z" fill="none"/>
      <path d="M48.01,62.71c.2-.4.3-.9.5-1.4.2-.8-1-1.2-1.3-.5-.2.4-.3.7-.5,1.1-.3.9,1,1.6,1.4.7l-.1.1h0Z" fill="#13515f"/>
      <path d="M111.21,59c.1,1.4-.9,2.6-2.3,2.7v.1c-50.3,21.1-106.6,1.4-106.6,1.4-1.2-.2-2.2-1.1-2.3-2.3-.1-1.4.9-2.7,2.3-2.8,0,0,.15.05.45.14,2.91-27.42,14.42-38.47,29.33-42.76.03-.59.07-1.15.12-1.68v-.3c-.1-2.2,1.6-4.1,3.8-4.1,2.02-.19,6.17-.37,9.95-.49C47.2,3.77,49.77-.04,54.81,0h.5c5-.1,7.6,3.8,8.8,8.9,0,.03,0,.06.02.09,3.04.12,5.98.26,7.58.41h.3c2.2.3,3.7,2.2,3.5,4.4.05.54.09,1.12.12,1.72,10.9,3.13,20.5,9.28,26.55,19.49.14.04.28.11.39.21.1.09.12.24.03.35-.02.02-.04.04-.06.05,3.28,5.74,5.45,12.74,6.15,21.17.07-.03.15-.06.22-.09,1.2,0,2.3,1,2.3,2.3Z" fill="none"/>
      <path d="M36.91,59.71h.1c.3.1.6,0,.7-.3.1-.4.3-.8.4-1.1.3-.7-.8-1.3-1.1-.5-.1.4-.3.8-.4,1.1s0,.7.3.8h0Z" fill="#13515f"/>
      <path d="M111.21,59c.1,1.4-.9,2.6-2.3,2.7v.1c-50.3,21.1-106.6,1.4-106.6,1.4-1.2-.2-2.2-1.1-2.3-2.3-.1-1.4.9-2.7,2.3-2.8,0,0,.15.05.45.14,2.91-27.42,14.42-38.47,29.33-42.76.03-.59.07-1.15.12-1.68v-.3c-.1-2.2,1.6-4.1,3.8-4.1,2.02-.19,6.17-.37,9.95-.49C47.2,3.77,49.77-.04,54.81,0h.5c5-.1,7.6,3.8,8.8,8.9,0,.03,0,.06.02.09,3.04.12,5.98.26,7.58.41h.3c2.2.3,3.7,2.2,3.5,4.4.05.54.09,1.12.12,1.72,10.9,3.13,20.5,9.28,26.55,19.49.14.04.28.11.39.21.1.09.12.24.03.35-.02.02-.04.04-.06.05,3.28,5.74,5.45,12.74,6.15,21.17.07-.03.15-.06.22-.09,1.2,0,2.3,1,2.3,2.3Z" fill="none"/>
      <path d="M34.91,59.31c.6-.2.7-.8.8-1.3.2-.7-.8-1-1.1-.4s-.6.9-.3,1.5c.1.2.3.3.6.2h0Z" fill="#13515f"/>
      <path d="M111.21,59c.1,1.4-.9,2.6-2.3,2.7v.1c-50.3,21.1-106.6,1.4-106.6,1.4-1.2-.2-2.2-1.1-2.3-2.3-.1-1.4.9-2.7,2.3-2.8,0,0,.15.05.45.14,2.91-27.42,14.42-38.47,29.33-42.76.03-.59.07-1.15.12-1.68v-.3c-.1-2.2,1.6-4.1,3.8-4.1,2.02-.19,6.17-.37,9.95-.49C47.2,3.77,49.77-.04,54.81,0h.5c5-.1,7.6,3.8,8.8,8.9,0,.03,0,.06.02.09,3.04.12,5.98.26,7.58.41h.3c2.2.3,3.7,2.2,3.5,4.4.05.54.09,1.12.12,1.72,10.9,3.13,20.5,9.28,26.55,19.49.14.04.28.11.39.21.1.09.12.24.03.35-.02.02-.04.04-.06.05,3.28,5.74,5.45,12.74,6.15,21.17.07-.03.15-.06.22-.09,1.2,0,2.3,1,2.3,2.3Z" fill="none"/>
      <path d="M30.61,58.41c-.2-.6-.5-1.3-.8-1.9-.1-.3-.5-.4-.8-.3s-.4.5-.3.8c.2.6.5,1.3.8,1.9.1.3.4.4.7.4.1,0,.2,0,.3-.1.2-.2.3-.5.2-.7l-.1-.1Z" fill="#13515f"/>
      <path d="M111.21,59c.1,1.4-.9,2.6-2.3,2.7v.1c-50.3,21.1-106.6,1.4-106.6,1.4-1.2-.2-2.2-1.1-2.3-2.3-.1-1.4.9-2.7,2.3-2.8,0,0,.15.05.45.14,2.91-27.42,14.42-38.47,29.33-42.76.03-.59.07-1.15.12-1.68v-.3c-.1-2.2,1.6-4.1,3.8-4.1,2.02-.19,6.17-.37,9.95-.49C47.2,3.77,49.77-.04,54.81,0h.5c5-.1,7.6,3.8,8.8,8.9,0,.03,0,.06.02.09,3.04.12,5.98.26,7.58.41h.3c2.2.3,3.7,2.2,3.5,4.4.05.54.09,1.12.12,1.72,10.9,3.13,20.5,9.28,26.55,19.49.14.04.28.11.39.21.1.09.12.24.03.35-.02.02-.04.04-.06.05,3.28,5.74,5.45,12.74,6.15,21.17.07-.03.15-.06.22-.09,1.2,0,2.3,1,2.3,2.3Z" fill="none"/>
      <path d="M92.11,62.41c.3-.5.7-.9,1.3-1.2.4-.2.8,0,1,.3s.1.7-.1.9c-.4.4-.9.8-1.5.9-.3,0-.7-.1-.8-.4v-.5h.1Z" fill="#13515f"/>
      <path d="M111.21,59c.1,1.4-.9,2.6-2.3,2.7v.1c-50.3,21.1-106.6,1.4-106.6,1.4-1.2-.2-2.2-1.1-2.3-2.3-.1-1.4.9-2.7,2.3-2.8,0,0,.15.05.45.14,2.91-27.42,14.42-38.47,29.33-42.76.03-.59.07-1.15.12-1.68v-.3c-.1-2.2,1.6-4.1,3.8-4.1,2.02-.19,6.17-.37,9.95-.49C47.2,3.77,49.77-.04,54.81,0h.5c5-.1,7.6,3.8,8.8,8.9,0,.03,0,.06.02.09,3.04.12,5.98.26,7.58.41h.3c2.2.3,3.7,2.2,3.5,4.4.05.54.09,1.12.12,1.72,10.9,3.13,20.5,9.28,26.55,19.49.14.04.28.11.39.21.1.09.12.24.03.35-.02.02-.04.04-.06.05,3.28,5.74,5.45,12.74,6.15,21.17.07-.03.15-.06.22-.09,1.2,0,2.3,1,2.3,2.3Z" fill="none"/>
      <path d="M94.21,64.41c.5-.6,1-1.2,1.6-1.7.2-.2.5-.2.7,0s.2.5,0,.7c-.5.6-1,1.2-1.6,1.7-.4.3-1-.3-.7-.7h0Z" fill="#13515f"/>
      <path d="M111.21,59c.1,1.4-.9,2.6-2.3,2.7v.1c-50.3,21.1-106.6,1.4-106.6,1.4-1.2-.2-2.2-1.1-2.3-2.3-.1-1.4.9-2.7,2.3-2.8,0,0,.15.05.45.14,2.91-27.42,14.42-38.47,29.33-42.76.03-.59.07-1.15.12-1.68v-.3c-.1-2.2,1.6-4.1,3.8-4.1,2.02-.19,6.17-.37,9.95-.49C47.2,3.77,49.77-.04,54.81,0h.5c5-.1,7.6,3.8,8.8,8.9,0,.03,0,.06.02.09,3.04.12,5.98.26,7.58.41h.3c2.2.3,3.7,2.2,3.5,4.4.05.54.09,1.12.12,1.72,10.9,3.13,20.5,9.28,26.55,19.49.14.04.28.11.39.21.1.09.12.24.03.35-.02.02-.04.04-.06.05,3.28,5.74,5.45,12.74,6.15,21.17.07-.03.15-.06.22-.09,1.2,0,2.3,1,2.3,2.3Z" fill="none"/>
      <path d="M90.21,62.71v-2.8c0-.7,1-.8,1.2-.2.4,1.1.3,2.3-.3,3.3-.2.2-.5.3-.7,0-.1,0-.2-.2-.2-.4v.1h0Z" fill="#13515f"/>
      <path d="M111.21,59c.1,1.4-.9,2.6-2.3,2.7v.1c-50.3,21.1-106.6,1.4-106.6,1.4-1.2-.2-2.2-1.1-2.3-2.3-.1-1.4.9-2.7,2.3-2.8,0,0,.15.05.45.14,2.91-27.42,14.42-38.47,29.33-42.76.03-.59.07-1.15.12-1.68v-.3c-.1-2.2,1.6-4.1,3.8-4.1,2.02-.19,6.17-.37,9.95-.49C47.2,3.77,49.77-.04,54.81,0h.5c5-.1,7.6,3.8,8.8,8.9,0,.03,0,.06.02.09,3.04.12,5.98.26,7.58.41h.3c2.2.3,3.7,2.2,3.5,4.4.05.54.09,1.12.12,1.72,10.9,3.13,20.5,9.28,26.55,19.49.14.04.28.11.39.21.1.09.12.24.03.35-.02.02-.04.04-.06.05,3.28,5.74,5.45,12.74,6.15,21.17.07-.03.15-.06.22-.09,1.2,0,2.3,1,2.3,2.3Z" fill="none"/>
      <path d="M87.11,60.21c.1-.4.1-.8,0-1.2-.3-.7,1-1.1,1.3-.4.3.7.3,1.5-.2,2.1-.4.5-1.3.2-1.1-.5h0Z" fill="#13515f"/>
      <path d="M111.21,59c.1,1.4-.9,2.6-2.3,2.7v.1c-50.3,21.1-106.6,1.4-106.6,1.4-1.2-.2-2.2-1.1-2.3-2.3-.1-1.4.9-2.7,2.3-2.8,0,0,.15.05.45.14,2.91-27.42,14.42-38.47,29.33-42.76.03-.59.07-1.15.12-1.68v-.3c-.1-2.2,1.6-4.1,3.8-4.1,2.02-.19,6.17-.37,9.95-.49C47.2,3.77,49.77-.04,54.81,0h.5c5-.1,7.6,3.8,8.8,8.9,0,.03,0,.06.02.09,3.04.12,5.98.26,7.58.41h.3c2.2.3,3.7,2.2,3.5,4.4.05.54.09,1.12.12,1.72,10.9,3.13,20.5,9.28,26.55,19.49.14.04.28.11.39.21.1.09.12.24.03.35-.02.02-.04.04-.06.05,3.28,5.74,5.45,12.74,6.15,21.17.07-.03.15-.06.22-.09,1.2,0,2.3,1,2.3,2.3Z" fill="none"/>
      <path d="M84.21,59.51v-.9c0-.4-.3-.7-.2-1.1.1-.3.4-.5.7-.4,1,.2,1,1.9.7,2.6-.2.7-1.4.5-1.3-.2h.1Z" fill="#13515f"/>
      <path d="M111.21,59c.1,1.4-.9,2.6-2.3,2.7v.1c-50.3,21.1-106.6,1.4-106.6,1.4-1.2-.2-2.2-1.1-2.3-2.3-.1-1.4.9-2.7,2.3-2.8,0,0,.15.05.45.14,2.91-27.42,14.42-38.47,29.33-42.76.03-.59.07-1.15.12-1.68v-.3c-.1-2.2,1.6-4.1,3.8-4.1,2.02-.19,6.17-.37,9.95-.49C47.2,3.77,49.77-.04,54.81,0h.5c5-.1,7.6,3.8,8.8,8.9,0,.03,0,.06.02.09,3.04.12,5.98.26,7.58.41h.3c2.2.3,3.7,2.2,3.5,4.4.05.54.09,1.12.12,1.72,10.9,3.13,20.5,9.28,26.55,19.49.14.04.28.11.39.21.1.09.12.24.03.35-.02.02-.04.04-.06.05,3.28,5.74,5.45,12.74,6.15,21.17.07-.03.15-.06.22-.09,1.2,0,2.3,1,2.3,2.3Z" fill="none"/>
      <path d="M63.21,61.91c-.3-.5-.4-1.1-.3-1.7,0-.4.4-.7.8-.7.3,0,.6.3.7.6.1.6.1,1.2,0,1.7-.1.3-.5.5-.8.4-.1,0-.3-.2-.3-.3h-.1Z" fill="#13515f"/>
      <path d="M111.21,59c.1,1.4-.9,2.6-2.3,2.7v.1c-50.3,21.1-106.6,1.4-106.6,1.4-1.2-.2-2.2-1.1-2.3-2.3-.1-1.4.9-2.7,2.3-2.8,0,0,.15.05.45.14,2.91-27.42,14.42-38.47,29.33-42.76.03-.59.07-1.15.12-1.68v-.3c-.1-2.2,1.6-4.1,3.8-4.1,2.02-.19,6.17-.37,9.95-.49C47.2,3.77,49.77-.04,54.81,0h.5c5-.1,7.6,3.8,8.8,8.9,0,.03,0,.06.02.09,3.04.12,5.98.26,7.58.41h.3c2.2.3,3.7,2.2,3.5,4.4.05.54.09,1.12.12,1.72,10.9,3.13,20.5,9.28,26.55,19.49.14.04.28.11.39.21.1.09.12.24.03.35-.02.02-.04.04-.06.05,3.28,5.74,5.45,12.74,6.15,21.17.07-.03.15-.06.22-.09,1.2,0,2.3,1,2.3,2.3Z" fill="none"/>
      <path d="M81.91,59.71c-.6.3-1.1-.4-.8-.9.2-.3.2-.7,0-1-.4-.9,1-1.6,1.4-.7.5.9.3,2-.6,2.6h0Z" fill="#13515f"/>
      <path d="M111.21,59c.1,1.4-.9,2.6-2.3,2.7v.1c-50.3,21.1-106.6,1.4-106.6,1.4-1.2-.2-2.2-1.1-2.3-2.3-.1-1.4.9-2.7,2.3-2.8,0,0,.15.05.45.14,2.91-27.42,14.42-38.47,29.33-42.76.03-.59.07-1.15.12-1.68v-.3c-.1-2.2,1.6-4.1,3.8-4.1,2.02-.19,6.17-.37,9.95-.49C47.2,3.77,49.77-.04,54.81,0h.5c5-.1,7.6,3.8,8.8,8.9,0,.03,0,.06.02.09,3.04.12,5.98.26,7.58.41h.3c2.2.3,3.7,2.2,3.5,4.4.05.54.09,1.12.12,1.72,10.9,3.13,20.5,9.28,26.55,19.49.14.04.28.11.39.21.1.09.12.24.03.35-.02.02-.04.04-.06.05,3.28,5.74,5.45,12.74,6.15,21.17.07-.03.15-.06.22-.09,1.2,0,2.3,1,2.3,2.3Z" fill="none"/>
      <path d="M58.81,64.51c-.6.3-1.1-.4-.8-.9.2-.3.2-.7,0-1-.4-.9,1-1.6,1.4-.7.5.9.3,2-.6,2.6h0Z" fill="#13515f"/>
      <path d="M111.21,59c.1,1.4-.9,2.6-2.3,2.7v.1c-50.3,21.1-106.6,1.4-106.6,1.4-1.2-.2-2.2-1.1-2.3-2.3-.1-1.4.9-2.7,2.3-2.8,0,0,.15.05.45.14,2.91-27.42,14.42-38.47,29.33-42.76.03-.59.07-1.15.12-1.68v-.3c-.1-2.2,1.6-4.1,3.8-4.1,2.02-.19,6.17-.37,9.95-.49C47.2,3.77,49.77-.04,54.81,0h.5c5-.1,7.6,3.8,8.8,8.9,0,.03,0,.06.02.09,3.04.12,5.98.26,7.58.41h.3c2.2.3,3.7,2.2,3.5,4.4.05.54.09,1.12.12,1.72,10.9,3.13,20.5,9.28,26.55,19.49.14.04.28.11.39.21.1.09.12.24.03.35-.02.02-.04.04-.06.05,3.28,5.74,5.45,12.74,6.15,21.17.07-.03.15-.06.22-.09,1.2,0,2.3,1,2.3,2.3Z" fill="none"/>
      <path d="M76.21,59.41c-.4-.5-.7-1.1-.9-1.7-.3-.8.9-1.5,1.3-.6.3.7.5,1.4.5,2.1,0,.3-.3.5-.5.5-.1,0-.2,0-.3-.2l-.1-.1Z" fill="#13515f"/>
      <path d="M111.21,59c.1,1.4-.9,2.6-2.3,2.7v.1c-50.3,21.1-106.6,1.4-106.6,1.4-1.2-.2-2.2-1.1-2.3-2.3-.1-1.4.9-2.7,2.3-2.8,0,0,.15.05.45.14,2.91-27.42,14.42-38.47,29.33-42.76.03-.59.07-1.15.12-1.68v-.3c-.1-2.2,1.6-4.1,3.8-4.1,2.02-.19,6.17-.37,9.95-.49C47.2,3.77,49.77-.04,54.81,0h.5c5-.1,7.6,3.8,8.8,8.9,0,.03,0,.06.02.09,3.04.12,5.98.26,7.58.41h.3c2.2.3,3.7,2.2,3.5,4.4.05.54.09,1.12.12,1.72,10.9,3.13,20.5,9.28,26.55,19.49.14.04.28.11.39.21.1.09.12.24.03.35-.02.02-.04.04-.06.05,3.28,5.74,5.45,12.74,6.15,21.17.07-.03.15-.06.22-.09,1.2,0,2.3,1,2.3,2.3Z" fill="none"/>
      <path d="M56.51,65.91c-.4-.5-.7-1.1-.9-1.7-.3-.8.9-1.5,1.3-.6.3.7.5,1.4.5,2.1,0,.3-.3.5-.5.5-.1,0-.2,0-.3-.2l-.1-.1h0Z" fill="#13515f"/>
      <path d="M111.21,59c.1,1.4-.9,2.6-2.3,2.7v.1c-50.3,21.1-106.6,1.4-106.6,1.4-1.2-.2-2.2-1.1-2.3-2.3-.1-1.4.9-2.7,2.3-2.8,0,0,.15.05.45.14,2.91-27.42,14.42-38.47,29.33-42.76.03-.59.07-1.15.12-1.68v-.3c-.1-2.2,1.6-4.1,3.8-4.1,2.02-.19,6.17-.37,9.95-.49C47.2,3.77,49.77-.04,54.81,0h.5c5-.1,7.6,3.8,8.8,8.9,0,.03,0,.06.02.09,3.04.12,5.98.26,7.58.41h.3c2.2.3,3.7,2.2,3.5,4.4.05.54.09,1.12.12,1.72,10.9,3.13,20.5,9.28,26.55,19.49.14.04.28.11.39.21.1.09.12.24.03.35-.02.02-.04.04-.06.05,3.28,5.74,5.45,12.74,6.15,21.17.07-.03.15-.06.22-.09,1.2,0,2.3,1,2.3,2.3Z" fill="none"/>
      <path d="M66.01,61.21c-.2-.7-.4-1.5-.5-2.3,0-.3.1-.5.4-.6.3,0,.5.1.6.4.3.7.4,1.5.5,2.3,0,.3-.3.5-.5.5s-.3-.1-.4-.3h-.1Z" fill="#13515f"/>
      <path d="M111.21,59c.1,1.4-.9,2.6-2.3,2.7v.1c-50.3,21.1-106.6,1.4-106.6,1.4-1.2-.2-2.2-1.1-2.3-2.3-.1-1.4.9-2.7,2.3-2.8,0,0,.15.05.45.14,2.91-27.42,14.42-38.47,29.33-42.76.03-.59.07-1.15.12-1.68v-.3c-.1-2.2,1.6-4.1,3.8-4.1,2.02-.19,6.17-.37,9.95-.49C47.2,3.77,49.77-.04,54.81,0h.5c5-.1,7.6,3.8,8.8,8.9,0,.03,0,.06.02.09,3.04.12,5.98.26,7.58.41h.3c2.2.3,3.7,2.2,3.5,4.4.05.54.09,1.12.12,1.72,10.9,3.13,20.5,9.28,26.55,19.49.14.04.28.11.39.21.1.09.12.24.03.35-.02.02-.04.04-.06.05,3.28,5.74,5.45,12.74,6.15,21.17.07-.03.15-.06.22-.09,1.2,0,2.3,1,2.3,2.3Z" fill="none"/>
      <path d="M68.31,60.11c-.2-.4-.3-.9-.5-1.4-.2-.8,1-1.2,1.3-.5.2.4.3.7.5,1.1.3.9-1,1.6-1.4.7l.1.1h0Z" fill="#13515f"/>
      <path d="M111.21,59c.1,1.4-.9,2.6-2.3,2.7v.1c-50.3,21.1-106.6,1.4-106.6,1.4-1.2-.2-2.2-1.1-2.3-2.3-.1-1.4.9-2.7,2.3-2.8,0,0,.15.05.45.14,2.91-27.42,14.42-38.47,29.33-42.76.03-.59.07-1.15.12-1.68v-.3c-.1-2.2,1.6-4.1,3.8-4.1,2.02-.19,6.17-.37,9.95-.49C47.2,3.77,49.77-.04,54.81,0h.5c5-.1,7.6,3.8,8.8,8.9,0,.03,0,.06.02.09,3.04.12,5.98.26,7.58.41h.3c2.2.3,3.7,2.2,3.5,4.4.05.54.09,1.12.12,1.72,10.9,3.13,20.5,9.28,26.55,19.49.14.04.28.11.39.21.1.09.12.24.03.35-.02.02-.04.04-.06.05,3.28,5.74,5.45,12.74,6.15,21.17.07-.03.15-.06.22-.09,1.2,0,2.3,1,2.3,2.3Z" fill="none"/>
      <path d="M60.61,62.91c-.2-.4-.3-.9-.5-1.4-.2-.8,1-1.2,1.4-.5.2.4.3.7.5,1.1.3.9-1,1.6-1.4.7v.1h0Z" fill="#13515f"/>
      <path d="M111.21,59c.1,1.4-.9,2.6-2.3,2.7v.1c-50.3,21.1-106.6,1.4-106.6,1.4-1.2-.2-2.2-1.1-2.3-2.3-.1-1.4.9-2.7,2.3-2.8,0,0,.15.05.45.14,2.91-27.42,14.42-38.47,29.33-42.76.03-.59.07-1.15.12-1.68v-.3c-.1-2.2,1.6-4.1,3.8-4.1,2.02-.19,6.17-.37,9.95-.49C47.2,3.77,49.77-.04,54.81,0h.5c5-.1,7.6,3.8,8.8,8.9,0,.03,0,.06.02.09,3.04.12,5.98.26,7.58.41h.3c2.2.3,3.7,2.2,3.5,4.4.05.54.09,1.12.12,1.72,10.9,3.13,20.5,9.28,26.55,19.49.14.04.28.11.39.21.1.09.12.24.03.35-.02.02-.04.04-.06.05,3.28,5.74,5.45,12.74,6.15,21.17.07-.03.15-.06.22-.09,1.2,0,2.3,1,2.3,2.3Z" fill="none"/>
      <path d="M71.81,59.81h-.1c-.3,0-.6,0-.7-.3-.1-.4-.3-.8-.4-1.1-.3-.7.8-1.3,1.1-.5.1.4.3.8.4,1.1s0,.7-.3.8h0Z" fill="#13515f"/>
      <path d="M111.21,59c.1,1.4-.9,2.6-2.3,2.7v.1c-50.3,21.1-106.6,1.4-106.6,1.4-1.2-.2-2.2-1.1-2.3-2.3-.1-1.4.9-2.7,2.3-2.8,0,0,.15.05.45.14,2.91-27.42,14.42-38.47,29.33-42.76.03-.59.07-1.15.12-1.68v-.3c-.1-2.2,1.6-4.1,3.8-4.1,2.02-.19,6.17-.37,9.95-.49C47.2,3.77,49.77-.04,54.81,0h.5c5-.1,7.6,3.8,8.8,8.9,0,.03,0,.06.02.09,3.04.12,5.98.26,7.58.41h.3c2.2.3,3.7,2.2,3.5,4.4.05.54.09,1.12.12,1.72,10.9,3.13,20.5,9.28,26.55,19.49.14.04.28.11.39.21.1.09.12.24.03.35-.02.02-.04.04-.06.05,3.28,5.74,5.45,12.74,6.15,21.17.07-.03.15-.06.22-.09,1.2,0,2.3,1,2.3,2.3Z" fill="none"/>
      <path d="M73.71,59.51c-.6-.2-.7-.8-.8-1.3-.2-.7.8-1,1.1-.4s.6.9.3,1.5c-.1.2-.4.3-.6.2h0Z" fill="#13515f"/>
      <path d="M111.21,59c.1,1.4-.9,2.6-2.3,2.7v.1c-50.3,21.1-106.6,1.4-106.6,1.4-1.2-.2-2.2-1.1-2.3-2.3-.1-1.4.9-2.7,2.3-2.8,0,0,.15.05.45.14,2.91-27.42,14.42-38.47,29.33-42.76.03-.59.07-1.15.12-1.68v-.3c-.1-2.2,1.6-4.1,3.8-4.1,2.02-.19,6.17-.37,9.95-.49C47.2,3.77,49.77-.04,54.81,0h.5c5-.1,7.6,3.8,8.8,8.9,0,.03,0,.06.02.09,3.04.12,5.98.26,7.58.41h.3c2.2.3,3.7,2.2,3.5,4.4.05.54.09,1.12.12,1.72,10.9,3.13,20.5,9.28,26.55,19.49.14.04.28.11.39.21.1.09.12.24.03.35-.02.02-.04.04-.06.05,3.28,5.74,5.45,12.74,6.15,21.17.07-.03.15-.06.22-.09,1.2,0,2.3,1,2.3,2.3Z" fill="none"/>
      <path d="M78.01,58.61c.2-.6.5-1.3.8-1.9.1-.3.5-.4.8-.3s.4.4.3.7c-.2.7-.5,1.3-.8,1.9-.1.3-.4.4-.7.4-.1,0-.2,0-.3-.1-.2-.2-.3-.5-.2-.7h.1Z" fill="#13515f"/>
      <path d="M111.21,59c.1,1.4-.9,2.6-2.3,2.7v.1c-50.3,21.1-106.6,1.4-106.6,1.4-1.2-.2-2.2-1.1-2.3-2.3-.1-1.4.9-2.7,2.3-2.8,0,0,.15.05.45.14,2.91-27.42,14.42-38.47,29.33-42.76.03-.59.07-1.15.12-1.68v-.3c-.1-2.2,1.6-4.1,3.8-4.1,2.02-.19,6.17-.37,9.95-.49C47.2,3.77,49.77-.04,54.81,0h.5c5-.1,7.6,3.8,8.8,8.9,0,.03,0,.06.02.09,3.04.12,5.98.26,7.58.41h.3c2.2.3,3.7,2.2,3.5,4.4.05.54.09,1.12.12,1.72,10.9,3.13,20.5,9.28,26.55,19.49.14.04.28.11.39.21.1.09.12.24.03.35-.02.02-.04.04-.06.05,3.28,5.74,5.45,12.74,6.15,21.17.07-.03.15-.06.22-.09,1.2,0,2.3,1,2.3,2.3Z" fill="none"/>
      <path d="M49.05,44.33c-.61-1.73-1.53-3.26-2.64-4.58h0v-.02l-.17-.19-.02-.03-.12.06h.13v-.06l-.13.06h.13-.21l.12.18.09-.18h-.21l.12.18-.09-.14v.17l.09-.03-.09-.14v.17h0s.19.06.39.15c.71.34,2.05,1.16,3.21,2.01.58.43,1.12.86,1.51,1.25.4.38.64.74.64.86.02.14.04.25.07.33l.06.13.07.08.16.06.16-.05c.12-.11.11-.17.14-.24.07-.25.12-.69.16-1.08s.06-.73.06-.74v-.04s-.18-1.46-.52-3.05c-.17-.79-.38-1.62-.64-2.32-.26-.7-.54-1.28-.94-1.6l-.12-.1h-.01s-.16.12-.16.12h.21c-.01-.13-.04-.12-.04-.13l-.16.13h.21-.24l.13.2.11-.2h-.24l.13.2-.13-.2v.23l.13-.04-.13-.2v.23-.18l-.04.18h.04v-.18l-.04.18v-.03.03h0v-.03.03s.15.07.31.17c1.2.69,4.79,3.25,6.07,5.98l.45-.21c-.82-1.73-2.42-3.31-3.85-4.48-.71-.58-1.39-1.06-1.9-1.39-.26-.17-.47-.3-.64-.39l-.21-.11c-.07-.03-.09-.05-.2-.06l-.14.04-.12.22c.01.13.05.14.06.18.06.07.12.12.22.2.25.18.54.7.78,1.37.36,1,.65,2.32.84,3.39.19,1.07.29,1.87.29,1.87l.25-.03-.25-.02s-.03.47-.08.93c-.03.23-.06.46-.09.63l-.04.18h0l.1.06-.08-.08-.02.03.1.05-.08-.08.16.15v-.22c-.09,0-.15.05-.16.07l.16.15v-.22.23l.14-.18-.14-.04v.23l.14-.18-.1.13.15-.07-.05-.06-.1.13.15-.07s-.03-.1-.06-.27c-.04-.23-.16-.43-.33-.65-.6-.76-1.9-1.74-3.13-2.56-.62-.41-1.21-.77-1.7-1.04-.24-.13-.45-.24-.63-.32s-.3-.13-.46-.13l-.19.05-.13.24c0,.14.06.2.11.27s.13.15.22.25l.18-.18-.19.16c1.08,1.28,1.97,2.75,2.56,4.42l.47-.17h-.02Z" fill="#13515f"/>
      <path d="M111.21,59c.1,1.4-.9,2.6-2.3,2.7v.1c-50.3,21.1-106.6,1.4-106.6,1.4-1.2-.2-2.2-1.1-2.3-2.3-.1-1.4.9-2.7,2.3-2.8,0,0,.15.05.45.14,2.91-27.42,14.42-38.47,29.33-42.76.03-.59.07-1.15.12-1.68v-.3c-.1-2.2,1.6-4.1,3.8-4.1,2.02-.19,6.17-.37,9.95-.49C47.2,3.77,49.77-.04,54.81,0h.5c5-.1,7.6,3.8,8.8,8.9,0,.03,0,.06.02.09,3.04.12,5.98.26,7.58.41h.3c2.2.3,3.7,2.2,3.5,4.4.05.54.09,1.12.12,1.72,10.9,3.13,20.5,9.28,26.55,19.49.14.04.28.11.39.21.1.09.12.24.03.35-.02.02-.04.04-.06.05,3.28,5.74,5.45,12.74,6.15,21.17.07-.03.15-.06.22-.09,1.2,0,2.3,1,2.3,2.3Z" fill="none"/>
      <path d="M111.21,59c.1,1.4-.9,2.6-2.3,2.7v.1c-50.3,21.1-106.6,1.4-106.6,1.4-1.2-.2-2.2-1.1-2.3-2.3-.1-1.4.9-2.7,2.3-2.8,0,0,.15.05.45.14,1.32.39,5.53,1.59,11.77,2.93.43.1.88.19,1.33.28.43.09.87.18,1.32.27.43.09.88.18,1.33.27,8.63,1.68,20.08,3.36,32.82,3.81.22.01.44.02.66.02,1.5.05,3.01.08,4.53.09.28.01.55.01.83.01,10.55.03,21.77-.87,32.86-3.34.41-.09.81-.18,1.22-.28.3-.07.6-.14.9-.21.7-.17,1.41-.35,2.11-.53,4.81-1.26,9.59-2.83,14.25-4.77.07-.03.15-.06.22-.09,1.2,0,2.3,1,2.3,2.3Z" fill="#f7b133"/>
      <path d="M111.21,59c.1,1.4-.9,2.6-2.3,2.7v.1c-50.3,21.1-106.6,1.4-106.6,1.4-1.2-.2-2.2-1.1-2.3-2.3-.1-1.4.9-2.7,2.3-2.8,0,0,.15.05.45.14,2.91-27.42,14.42-38.47,29.33-42.76.03-.59.07-1.15.12-1.68v-.3c-.1-2.2,1.6-4.1,3.8-4.1,2.02-.19,6.17-.37,9.95-.49C47.2,3.77,49.77-.04,54.81,0h.5c5-.1,7.6,3.8,8.8,8.9,0,.03,0,.06.02.09,3.04.12,5.98.26,7.58.41h.3c2.2.3,3.7,2.2,3.5,4.4.05.54.09,1.12.12,1.72,10.9,3.13,20.5,9.28,26.55,19.49.14.04.28.11.39.21.1.09.12.24.03.35-.02.02-.04.04-.06.05,3.28,5.74,5.45,12.74,6.15,21.17.07-.03.15-.06.22-.09,1.2,0,2.3,1,2.3,2.3Z" fill="none"/>
      <path d="M108.91,60.7s-4.46,2.22-13.91,4.32c-.17.04-.34.08-.52.11,0,0,0,.01-.01,0-9.17,2-22.87,3.86-41.56,3.57-16.11-.22-29.68-2.14-38.69-3.83-.23-.05-.47-.09-.7-.14-7.05-1.36-11.11-2.53-11.11-2.53.1-1.36.21-2.68.35-3.96,2.91-27.42,14.42-38.47,29.33-42.76,4.16-1.2,8.57-1.87,13.14-2.22,3.39-.27,6.87-.36,10.38-.36h.2c3.02,0,6.04.16,9.02.51,3.69.41,7.31,1.11,10.8,2.11,10.9,3.13,20.5,9.28,26.55,19.49.12.2.24.4.36.61,3.28,5.74,5.45,12.74,6.15,21.17.11,1.27.18,2.57.22,3.91Z" fill="#f7b133"/>
      <path d="M111.21,59c.1,1.4-.9,2.6-2.3,2.7v.1c-50.3,21.1-106.6,1.4-106.6,1.4-1.2-.2-2.2-1.1-2.3-2.3-.1-1.4.9-2.7,2.3-2.8,0,0,.15.05.45.14,2.91-27.42,14.42-38.47,29.33-42.76.03-.59.07-1.15.12-1.68v-.3c-.1-2.2,1.6-4.1,3.8-4.1,2.02-.19,6.17-.37,9.95-.49C47.2,3.77,49.77-.04,54.81,0h.5c5-.1,7.6,3.8,8.8,8.9,0,.03,0,.06.02.09,3.04.12,5.98.26,7.58.41h.3c2.2.3,3.7,2.2,3.5,4.4.05.54.09,1.12.12,1.72,10.9,3.13,20.5,9.28,26.55,19.49.14.04.28.11.39.21.1.09.12.24.03.35-.02.02-.04.04-.06.05,3.28,5.74,5.45,12.74,6.15,21.17.07-.03.15-.06.22-.09,1.2,0,2.3,1,2.3,2.3Z" fill="none"/>
      <path d="M74.91,53.1c-2.69-.52-5.25-.95-7.68-1.27-2.13-.3-4.15-.53-6.08-.7-4.37-.39-8.25-.48-11.63-.4-2.48.05-4.69.2-6.62.4-6.68.69-10.09,1.97-10.09,1.97,0,0-1.46-25.31-.72-37.62.03-.59.07-1.15.12-1.68v-.3c-.1-2.2,1.6-4.1,3.8-4.1,2.02-.19,6.17-.37,9.95-.49,4.1-.13,7.75-.21,7.75-.21h.3s5.18.12,10.12.29c3.04.12,5.98.26,7.58.41h.3c2.2.3,3.7,2.2,3.5,4.4.05.54.09,1.12.12,1.72.73,12.33-.72,37.58-.72,37.58Z" fill="#f7b133"/>
      <path d="M111.21,59c.1,1.4-.9,2.6-2.3,2.7v.1c-50.3,21.1-106.6,1.4-106.6,1.4-1.2-.2-2.2-1.1-2.3-2.3-.1-1.4.9-2.7,2.3-2.8,0,0,.15.05.45.14,2.91-27.42,14.42-38.47,29.33-42.76.03-.59.07-1.15.12-1.68v-.3c-.1-2.2,1.6-4.1,3.8-4.1,2.02-.19,6.17-.37,9.95-.49C47.2,3.77,49.77-.04,54.81,0h.5c5-.1,7.6,3.8,8.8,8.9,0,.03,0,.06.02.09,3.04.12,5.98.26,7.58.41h.3c2.2.3,3.7,2.2,3.5,4.4.05.54.09,1.12.12,1.72,10.9,3.13,20.5,9.28,26.55,19.49.14.04.28.11.39.21.1.09.12.24.03.35-.02.02-.04.04-.06.05,3.28,5.74,5.45,12.74,6.15,21.17.07-.03.15-.06.22-.09,1.2,0,2.3,1,2.3,2.3Z" fill="none"/>
      <path d="M69.11,59.7c-.36-.12-.71-.23-1.07-.33-.48-.15-.96-.29-1.44-.4-.35-.11-.71-.2-1.07-.28-7.36-1.77-15.1-1.64-22.47.37-.41.11-.82.23-1.23.36-.31.08-.61.18-.92.28,0,0,.96-3.65,1.99-8.57,1.39-6.55,2.91-15.35,2.51-20.83-.32-4.4-.82-11.08-.18-17.04.16-1.51.4-2.98.73-4.35C47.2,3.77,49.77-.04,54.81,0h.5c5-.1,7.6,3.8,8.8,8.9,0,.03,0,.06.02.09.32,1.39.55,2.88.7,4.42.6,5.93.1,12.54-.22,16.89-.47,5.73,1.18,14.94,2.62,21.53.54,2.5,1.05,4.62,1.41,6.02.29,1.17.47,1.85.47,1.85Z" fill="#f7b133"/>
      <path d="M111.21,59c.1,1.4-.9,2.6-2.3,2.7v.1c-50.3,21.1-106.6,1.4-106.6,1.4-1.2-.2-2.2-1.1-2.3-2.3-.1-1.4.9-2.7,2.3-2.8,0,0,.15.05.45.14,2.91-27.42,14.42-38.47,29.33-42.76.03-.59.07-1.15.12-1.68v-.3c-.1-2.2,1.6-4.1,3.8-4.1,2.02-.19,6.17-.37,9.95-.49C47.2,3.77,49.77-.04,54.81,0h.5c5-.1,7.6,3.8,8.8,8.9,0,.03,0,.06.02.09,3.04.12,5.98.26,7.58.41h.3c2.2.3,3.7,2.2,3.5,4.4.05.54.09,1.12.12,1.72,10.9,3.13,20.5,9.28,26.55,19.49.14.04.28.11.39.21.1.09.12.24.03.35-.02.02-.04.04-.06.05,3.28,5.74,5.45,12.74,6.15,21.17.07-.03.15-.06.22-.09,1.2,0,2.3,1,2.3,2.3Z" fill="none"/>
      <g clip-path="url(#clippath)">
        <g>
          <path d="M75.51,12.99c.03.27.03.54,0,.82.05.53.09,1.1.12,1.7h.08c.03-1-.05-1.83-.21-2.52" fill="#d1d1d5"/>
          <path d="M75.84,23.46c.03,11.43-.72,25.93-.89,29.05.12-.09.21-.23.27-.4.05-.72.1-1.43.15-2.13-.16,1.29-.25,2.03-.25,2.03.63-9.47.88-19,.73-28.55" fill="#ca9232"/>
          <path d="M67.61,9.21h0s0,2.4.2,5.3c1,0,2,.2,3,.6.4.2.7.6.8,1.1.4,3.9,2.4,26,1.2,35.7h-.1c0,.3.2.6.5.7h1.4c.13,0,.24-.04.33-.1.17-3.11.93-17.61.89-29.05-.04-2.65-.12-5.3-.23-7.95h.02c-.04-.6-.08-1.17-.12-1.7.03-.28.02-.55,0-.82-.61-2.68-2.3-3.18-2.3-3.18,0,0-.4-.3-5.6-.6" fill="#ca9232"/>
        </g>
      </g>
      <path d="M111.21,59c.1,1.4-.9,2.6-2.3,2.7v.1c-50.3,21.1-106.6,1.4-106.6,1.4-1.2-.2-2.2-1.1-2.3-2.3-.1-1.4.9-2.7,2.3-2.8,0,0,.15.05.45.14,2.91-27.42,14.42-38.47,29.33-42.76.03-.59.07-1.15.12-1.68v-.3c-.1-2.2,1.6-4.1,3.8-4.1,2.02-.19,6.17-.37,9.95-.49C47.2,3.77,49.77-.04,54.81,0h.5c5-.1,7.6,3.8,8.8,8.9,0,.03,0,.06.02.09,3.04.12,5.98.26,7.58.41h.3c2.2.3,3.7,2.2,3.5,4.4.05.54.09,1.12.12,1.72,10.9,3.13,20.5,9.28,26.55,19.49.14.04.28.11.39.21.1.09.12.24.03.35-.02.02-.04.04-.06.05,3.28,5.74,5.45,12.74,6.15,21.17.07-.03.15-.06.22-.09,1.2,0,2.3,1,2.3,2.3Z" fill="none"/>
      <g clip-path="url(#clippath-1)">
        <g>
          <path d="M2.21,58.01s.19.07.56.19v-.05c-.19-.05-.37-.09-.56-.14" fill="#a3a2ac"/>
          <path d="M107.49,57.04c-1.09.23-3,.61-6.35,1.25-.96.19-2.01.39-3.13.6-.69.13-1.43.27-2.21.42v-.02c-10.91,1.92-27.72,4.16-46.67,4.16-10.94,0-22.59-.75-34.23-2.74v.1c-2.9-.39-5.79-.96-8.6-1.81-1.18-.27-2.36-.55-3.54-.85v.05c3.47,1.16,22.96,7.23,50.33,7.23,15.98,0,34.65-2.07,54.39-8.4" fill="#9e7332"/>
        </g>
      </g>
      <path d="M111.21,59c.1,1.4-.9,2.6-2.3,2.7v.1c-50.3,21.1-106.6,1.4-106.6,1.4-1.2-.2-2.2-1.1-2.3-2.3-.1-1.4.9-2.7,2.3-2.8,0,0,.15.05.45.14,2.91-27.42,14.42-38.47,29.33-42.76.03-.59.07-1.15.12-1.68v-.3c-.1-2.2,1.6-4.1,3.8-4.1,2.02-.19,6.17-.37,9.95-.49C47.2,3.77,49.77-.04,54.81,0h.5c5-.1,7.6,3.8,8.8,8.9,0,.03,0,.06.02.09,3.04.12,5.98.26,7.58.41h.3c2.2.3,3.7,2.2,3.5,4.4.05.54.09,1.12.12,1.72,10.9,3.13,20.5,9.28,26.55,19.49.14.04.28.11.39.21.1.09.12.24.03.35-.02.02-.04.04-.06.05,3.28,5.74,5.45,12.74,6.15,21.17.07-.03.15-.06.22-.09,1.2,0,2.3,1,2.3,2.3Z" fill="none"/>
      <g clip-path="url(#clippath-2)">
        <g>
          <path d="M75.71,15.52v.03c1.31.38,2.6.8,3.87,1.27-.75-.29-3.12-1.21-3.87-1.3" fill="#b9b9c0"/>
          <path d="M75.71,15.55v.06c-.01.36,0,.92,0,1.66.04,1.05.07,2.18.09,3.35.03,1.24.07,2.68.1,4.29v11.67c-.08,4.06-.24,8.56-.55,13.39.48-3.91,1.59-12.87,2.77-21.27-.04-.02-.07-.04-.11-.06v-.69l1.7-10.96s.03,0,.1.03v-.13s-.08-.03-.23-.09c-1.27-.47-2.56-.89-3.87-1.27" fill="#b48232"/>
          <path d="M75.72,17.27c.02.87.05,2,.09,3.35-.02-1.17-.05-2.3-.09-3.35" fill="#b48232"/>
          <path d="M75.63,15.51v.02s.05.02.08.02v-.03h-.08" fill="#9998a3"/>
          <path d="M75.81,20.63c.02.92.02,1.86.03,2.83.16,9.55-.1,19.08-.73,28.55,0,0,.09-.74.25-2.03.31-4.83.48-9.34.55-13.39v-11.67c-.03-1.61-.06-3.04-.1-4.29M75.63,15.53c.03.56.06,1.14.09,1.75-.02-.75-.02-1.31,0-1.66v-.06s-.05-.02-.08-.02" fill="#946d31"/>
          <path d="M75.61,15.51c.11,2.65.18,5.3.23,7.95,0-.97-.01-1.92-.03-2.83-.04-1.36-.07-2.48-.09-3.35-.02-.61-.05-1.19-.09-1.75v-.02h-.02" fill="#946d31"/>
        </g>
      </g>
      <path d="M111.21,59c.1,1.4-.9,2.6-2.3,2.7v.1c-50.3,21.1-106.6,1.4-106.6,1.4-1.2-.2-2.2-1.1-2.3-2.3-.1-1.4.9-2.7,2.3-2.8,0,0,.15.05.45.14,2.91-27.42,14.42-38.47,29.33-42.76.03-.59.07-1.15.12-1.68v-.3c-.1-2.2,1.6-4.1,3.8-4.1,2.02-.19,6.17-.37,9.95-.49C47.2,3.77,49.77-.04,54.81,0h.5c5-.1,7.6,3.8,8.8,8.9,0,.03,0,.06.02.09,3.04.12,5.98.26,7.58.41h.3c2.2.3,3.7,2.2,3.5,4.4.05.54.09,1.12.12,1.72,10.9,3.13,20.5,9.28,26.55,19.49.14.04.28.11.39.21.1.09.12.24.03.35-.02.02-.04.04-.06.05,3.28,5.74,5.45,12.74,6.15,21.17.07-.03.15-.06.22-.09,1.2,0,2.3,1,2.3,2.3Z" fill="none"/>
      <g clip-path="url(#clippath-3)">
        <g>
          <path d="M32.09,15.52c-1.49.4-2.88,1-4.28,1.59v.1c2,11.6,4.7,35.3,4.7,35.3-.79-10.75-.96-21.58-.59-32.35.03-1.68.09-3.24.17-4.64" fill="#b48232"/>
          <path d="M32.11,15.51h-.02c-.08,1.4-.14,2.96-.17,4.64.05-1.55.12-3.1.19-4.65" fill="#b48232"/>
        </g>
      </g>
      <path d="M111.21,59c.1,1.4-.9,2.6-2.3,2.7v.1c-50.3,21.1-106.6,1.4-106.6,1.4-1.2-.2-2.2-1.1-2.3-2.3-.1-1.4.9-2.7,2.3-2.8,0,0,.15.05.45.14,2.91-27.42,14.42-38.47,29.33-42.76.03-.59.07-1.15.12-1.68v-.3c-.1-2.2,1.6-4.1,3.8-4.1,2.02-.19,6.17-.37,9.95-.49C47.2,3.77,49.77-.04,54.81,0h.5c5-.1,7.6,3.8,8.8,8.9,0,.03,0,.06.02.09,3.04.12,5.98.26,7.58.41h.3c2.2.3,3.7,2.2,3.5,4.4.05.54.09,1.12.12,1.72,10.9,3.13,20.5,9.28,26.55,19.49.14.04.28.11.39.21.1.09.12.24.03.35-.02.02-.04.04-.06.05,3.28,5.74,5.45,12.74,6.15,21.17.07-.03.15-.06.22-.09,1.2,0,2.3,1,2.3,2.3Z" fill="none"/>
      <g clip-path="url(#clippath-4)">
        <g>
          <path d="M67.51,9.01h-3.32c1.15.04,2.28.09,3.33.14v-.14" fill="#b9b9c0"/>
          <path d="M67.42,51.86c.72,3.25,1.35,5.75,1.59,6.67v-.79c-.16-1.35-.49-3.4-.87-5.78-.24-.04-.48-.07-.73-.1" fill="#b48232"/>
          <path d="M64.19,9.01h-.06c.4,1.73.65,3.62.8,5.55.13,1.63.18,3.27.18,4.9,0,4.04-.29,7.95-.5,10.86-.03.35-.05.71-.06,1.08-.06,5.92,1.55,14.47,2.87,20.47.24.03.48.07.73.1-1.08-6.78-2.54-16.3-1.53-20.25,1.61-6.26.98-20.98.91-22.56-1.05-.05-2.18-.1-3.33-.14" fill="#b48232"/>
          <path d="M65.11,19.45c0,3.82-.29,7.5-.5,10.36-.04.5-.06,1.03-.06,1.58.01-.37.03-.73.06-1.08.21-2.9.51-6.81.5-10.86M64.13,9.01h-.02c.41,1.76.67,3.64.83,5.55-.15-1.93-.4-3.81-.8-5.55" fill="#b48232"/>
        </g>
      </g>
      <path d="M111.21,59c.1,1.4-.9,2.6-2.3,2.7v.1c-50.3,21.1-106.6,1.4-106.6,1.4-1.2-.2-2.2-1.1-2.3-2.3-.1-1.4.9-2.7,2.3-2.8,0,0,.15.05.45.14,2.91-27.42,14.42-38.47,29.33-42.76.03-.59.07-1.15.12-1.68v-.3c-.1-2.2,1.6-4.1,3.8-4.1,2.02-.19,6.17-.37,9.95-.49C47.2,3.77,49.77-.04,54.81,0h.5c5-.1,7.6,3.8,8.8,8.9,0,.03,0,.06.02.09,3.04.12,5.98.26,7.58.41h.3c2.2.3,3.7,2.2,3.5,4.4.05.54.09,1.12.12,1.72,10.9,3.13,20.5,9.28,26.55,19.49.14.04.28.11.39.21.1.09.12.24.03.35-.02.02-.04.04-.06.05,3.28,5.74,5.45,12.74,6.15,21.17.07-.03.15-.06.22-.09,1.2,0,2.3,1,2.3,2.3Z" fill="none"/>
      <g clip-path="url(#clippath-5)">
        <g>
          <path d="M45.71,8.91l-.95.06c.32,0,.63-.02.94-.03v-.02" fill="#b9b9c0"/>
          <path d="M42.61,51.17c-.25.03-.49.05-.73.08-.6,3.74-1.13,6.79-1.16,7.85,0,0,.9-3.33,1.9-7.94" fill="#b48232"/>
          <path d="M45.7,8.93c-.31,0-.63.02-.94.03l-2.45.14s-.9,15.3,1,22.5c.97,3.8-.35,12.87-1.44,19.65.24-.03.48-.06.73-.08,1.43-6.58,3.07-15.75,2.6-21.46-.4-5.49-1.1-13.98.49-20.78" fill="#b48232"/>
        </g>
      </g>
      <path d="M111.21,59c.1,1.4-.9,2.6-2.3,2.7v.1c-50.3,21.1-106.6,1.4-106.6,1.4-1.2-.2-2.2-1.1-2.3-2.3-.1-1.4.9-2.7,2.3-2.8,0,0,.15.05.45.14,2.91-27.42,14.42-38.47,29.33-42.76.03-.59.07-1.15.12-1.68v-.3c-.1-2.2,1.6-4.1,3.8-4.1,2.02-.19,6.17-.37,9.95-.49C47.2,3.77,49.77-.04,54.81,0h.5c5-.1,7.6,3.8,8.8,8.9,0,.03,0,.06.02.09,3.04.12,5.98.26,7.58.41h.3c2.2.3,3.7,2.2,3.5,4.4.05.54.09,1.12.12,1.72,10.9,3.13,20.5,9.28,26.55,19.49.14.04.28.11.39.21.1.09.12.24.03.35-.02.02-.04.04-.06.05,3.28,5.74,5.45,12.74,6.15,21.17.07-.03.15-.06.22-.09,1.2,0,2.3,1,2.3,2.3Z" fill="none"/>
      <g clip-path="url(#clippath-6)">
        <g>
          <path d="M28.11,19.71h0S11.31,26.11,6.01,58.91c.1.03.2.06.3.09,2.86.65,5.73,1.22,8.6,1.71.02-1.77.51-26.35,14-35.6h0l-.8-5.4" fill="#f9c971"/>
          <path d="M6.31,59c2.81.85,5.7,1.42,8.6,1.81v-.1c-2.87-.49-5.74-1.06-8.6-1.71" fill="#bb9d70"/>
        </g>
      </g>
      <path d="M111.21,59c.1,1.4-.9,2.6-2.3,2.7v.1c-50.3,21.1-106.6,1.4-106.6,1.4-1.2-.2-2.2-1.1-2.3-2.3-.1-1.4.9-2.7,2.3-2.8,0,0,.15.05.45.14,2.91-27.42,14.42-38.47,29.33-42.76.03-.59.07-1.15.12-1.68v-.3c-.1-2.2,1.6-4.1,3.8-4.1,2.02-.19,6.17-.37,9.95-.49C47.2,3.77,49.77-.04,54.81,0h.5c5-.1,7.6,3.8,8.8,8.9,0,.03,0,.06.02.09,3.04.12,5.98.26,7.58.41h.3c2.2.3,3.7,2.2,3.5,4.4.05.54.09,1.12.12,1.72,10.9,3.13,20.5,9.28,26.55,19.49.14.04.28.11.39.21.1.09.12.24.03.35-.02.02-.04.04-.06.05,3.28,5.74,5.45,12.74,6.15,21.17.07-.03.15-.06.22-.09,1.2,0,2.3,1,2.3,2.3Z" fill="none"/>
      <g clip-path="url(#clippath-7)">
        <path d="M39.71,10.11h0l-3.9.4c-1.5,0-2.7,1.1-2.7,2.6-.03.86-.07,4.48-.1,9.16v16.5c.04,5.43.13,9.99.3,11.54,0,.3.3.5.6.5h1.3c.3,0,.6-.3.6-.6l.5-36.3s-.4-.5,1.2-1.1c1-.4,1.9-1,2.7-1.8v.1c.2-.2.3-.6,0-.8-.1-.1-.3-.2-.5-.2" fill="#f9c971"/>
      </g>
      <path d="M111.21,59c.1,1.4-.9,2.6-2.3,2.7v.1c-50.3,21.1-106.6,1.4-106.6,1.4-1.2-.2-2.2-1.1-2.3-2.3-.1-1.4.9-2.7,2.3-2.8,0,0,.15.05.45.14,2.91-27.42,14.42-38.47,29.33-42.76.03-.59.07-1.15.12-1.68v-.3c-.1-2.2,1.6-4.1,3.8-4.1,2.02-.19,6.17-.37,9.95-.49C47.2,3.77,49.77-.04,54.81,0h.5c5-.1,7.6,3.8,8.8,8.9,0,.03,0,.06.02.09,3.04.12,5.98.26,7.58.41h.3c2.2.3,3.7,2.2,3.5,4.4.05.54.09,1.12.12,1.72,10.9,3.13,20.5,9.28,26.55,19.49.14.04.28.11.39.21.1.09.12.24.03.35-.02.02-.04.04-.06.05,3.28,5.74,5.45,12.74,6.15,21.17.07-.03.15-.06.22-.09,1.2,0,2.3,1,2.3,2.3Z" fill="none"/>
      <g clip-path="url(#clippath-8)">
        <path d="M55.49,1.11h-.48s-5.7.2-7.6,7.2c-1.8,6.9-.8,18.6-.8,19.1s.3,19.2-3.4,28.5h1.6c.3,0,.5-.3.6-.6.7-2.9,4.1-18.6,2.8-27.8-1.5-10.1.4-17.8,1.4-18.6s3.8-3.3,5.9-3.5c.82-.08,1.34-.73,1.5-1.5v-1.06c-.15-.76-.65-1.46-1.52-1.74" fill="#f9c971"/>
      </g>
      <path d="M111.21,59c.1,1.4-.9,2.6-2.3,2.7v.1c-50.3,21.1-106.6,1.4-106.6,1.4-1.2-.2-2.2-1.1-2.3-2.3-.1-1.4.9-2.7,2.3-2.8,0,0,.15.05.45.14,2.91-27.42,14.42-38.47,29.33-42.76.03-.59.07-1.15.12-1.68v-.3c-.1-2.2,1.6-4.1,3.8-4.1,2.02-.19,6.17-.37,9.95-.49C47.2,3.77,49.77-.04,54.81,0h.5c5-.1,7.6,3.8,8.8,8.9,0,.03,0,.06.02.09,3.04.12,5.98.26,7.58.41h.3c2.2.3,3.7,2.2,3.5,4.4.05.54.09,1.12.12,1.72,10.9,3.13,20.5,9.28,26.55,19.49.14.04.28.11.39.21.1.09.12.24.03.35-.02.02-.04.04-.06.05,3.28,5.74,5.45,12.74,6.15,21.17.07-.03.15-.06.22-.09,1.2,0,2.3,1,2.3,2.3Z" fill="none"/>
      <g clip-path="url(#clippath-9)">
        <g>
          <path d="M102.54,35.62h0c3.27,5.74,5.45,12.73,6.15,21.15.21-.05.2-.06.17-.06h-.05c-.65-8.73-3.08-15.65-6.27-21.09" fill="#d1d1d5"/>
          <path d="M102.41,35.41c.04.07.08.14.12.21h0c-.04-.07-.08-.14-.13-.21" fill="#4f8ca8"/>
          <path d="M79.81,17.04v.46c-.53,3.18-1.12,7.13-1.69,11.21,12.91,6.54,17.53,29.78,17.68,30.57.77-.13,1.51-.27,2.21-.4,1.16-.22,2.2-.42,3.13-.6,3.8-.75,6.33-1.35,7.26-1.58h.1c-.34.11-.67.22-1.01.33.66-.14,1.01-.22,1.2-.27-.7-8.42-2.88-15.41-6.15-21.15-.04-.07-.08-.14-.12-.21-8.21-13.78-21.33-17.99-22.6-18.37" fill="#ca9232"/>
          <path d="M98.02,58.89c-.71.13-1.45.26-2.21.4v.02c.78-.15,1.52-.29,2.21-.42M108.51,56.71h-.1c-.93.23-3.46.83-7.26,1.58,3.34-.64,5.26-1.03,6.35-1.25.34-.11.67-.22,1.01-.33" fill="#836131"/>
          <path d="M79.71,17.01h0l-1.7,10.96v.69s.07.04.11.06c.57-4.08,1.16-8.03,1.69-11.21v-.46c-.07-.02-.1-.03-.1-.03" fill="#956d31"/>
        </g>
      </g>
      <path d="M111.21,59c.1,1.4-.9,2.6-2.3,2.7v.1c-50.3,21.1-106.6,1.4-106.6,1.4-1.2-.2-2.2-1.1-2.3-2.3-.1-1.4.9-2.7,2.3-2.8,0,0,.15.05.45.14,2.91-27.42,14.42-38.47,29.33-42.76.03-.59.07-1.15.12-1.68v-.3c-.1-2.2,1.6-4.1,3.8-4.1,2.02-.19,6.17-.37,9.95-.49C47.2,3.77,49.77-.04,54.81,0h.5c5-.1,7.6,3.8,8.8,8.9,0,.03,0,.06.02.09,3.04.12,5.98.26,7.58.41h.3c2.2.3,3.7,2.2,3.5,4.4.05.54.09,1.12.12,1.72,10.9,3.13,20.5,9.28,26.55,19.49.14.04.28.11.39.21.1.09.12.24.03.35-.02.02-.04.04-.06.05,3.28,5.74,5.45,12.74,6.15,21.17.07-.03.15-.06.22-.09,1.2,0,2.3,1,2.3,2.3Z" fill="none"/>
      <g clip-path="url(#clippath-10)">
        <g>
          <path d="M10.56,64.15c7.95,2.16,21.96,4.91,41.7,4.91,5.42,0,11.28-.21,17.56-.69-4.03.24-8.38.37-13.07.37-1.26,0-2.54,0-3.84-.03-18.48-.25-33.62-2.74-42.35-4.56M2.69,58.91h-.18c-.23.1-.44.27-.61.5,0,0-.1.2-.2.3-.04.07-.07.14-.1.2v.86c.18.36.57.59.85.71.07-.87.14-1.73.23-2.57" fill="#f9c971"/>
          <path d="M3.59,58.91h-.9c-.08.84-.16,1.7-.23,2.57.2.09.35.13.35.13,0,0,2.61,1.15,7.75,2.54,8.74,1.82,23.88,4.31,42.35,4.56,1.3.02,2.58.03,3.84.03,4.69,0,9.04-.14,13.07-.37,5.08-.39,10.44-.96,16.08-1.75-6.51.84-15.93,1.71-26.85,1.71-16.57,0-36.58-2.01-55.14-9.21-.1-.08-.21-.15-.32-.2" fill="#f9c971"/>
          <path d="M95.41,65.11c-1.45.25-2.88.49-4.3.72-.41.08-.82.15-1.25.23,3.54-.53,5.54-.95,5.54-.95h0" fill="#f9c971"/>
          <path d="M91.11,65.83c-1.77.28-3.5.54-5.22.78,1.48-.19,2.81-.38,3.97-.55.42-.08.84-.15,1.25-.23" fill="#f9c971"/>
        </g>
      </g>
    </g>
  </g>
</svg>