<?xml version="1.0" encoding="UTF-8"?>
<svg xmlns="http://www.w3.org/2000/svg" version="1.1" viewBox="0 0 279 512.5">
  <!-- Generator: Adobe Illustrator 29.1.0, SVG Export Plug-In . SVG Version: 2.1.0 Build 142)  -->
  <g id="Layer_1" image-rendering="optimizeQuality" shape-rendering="geometricPrecision" text-rendering="geometricPrecision">
    <path d="M260.8,277.3H18.2v112.2c0,28.8,11.8,55.1,30.8,74,19,19,45.2,30.8,74.1,30.8h33c28.8,0,55-11.8,74-30.8,19-19,30.8-45.2,30.8-74v-112.2h0ZM18.2,259.2h112.3v-32c-9.4-3.7-16.2-12.9-16.2-23.6v-36.7c0-10.7,6.8-19.9,16.2-23.6v-41.1h-7.4c-28.8,0-55.1,11.8-74.1,30.8-19,19-30.8,45.2-30.8,74.1,0,0,0,52.2,0,52.2ZM148.6,259.2h112.3v-52.2c0-28.8-11.8-55.1-30.8-74.1-19-19-45.2-30.8-74.1-30.8h-7.4v41.1c9.5,3.7,16.2,12.9,16.2,23.6v36.6c0,10.7-6.8,19.9-16.2,23.6v32h0ZM156,512.5h-33c-33.8,0-64.5-13.8-86.8-36.1h0C13.8,454,0,423.3,0,389.5v-182.5c0-33.8,13.8-64.6,36.1-86.8,22.3-22.3,53.1-36.2,86.9-36.2h33c33.8,0,64.6,13.8,86.8,36.1,22.3,22.3,36.1,53.1,36.1,86.9v182.5c0,33.8-13.9,64.5-36.1,86.9-22.2,22.3-53,36.1-86.8,36.1h0ZM215.4,34.4c-6.8-2-13.9,1.9-15.9,8.7l-8,27c8.2,2.2,16,5.1,23.5,8.7l9.2-28.5c2-6.8-1.9-13.9-8.7-15.9ZM79.5,48c-2-6.8-9.1-10.7-15.9-8.7-6.8,2-10.7,9.1-8.7,15.9l8.5,23.9c7.4-3.6,15.2-6.6,23.3-8.8l-7.2-22.3ZM140.1,1c-7.1,0-12.9,5.8-12.9,12.9v51.8s25.7,0,25.7,0V13.9c0-7.1-5.8-12.8-12.8-12.9Z"/>
  </g>
</svg>